<svg width="17" height="15" fill="none" xmlns="http://www.w3.org/2000/svg"><path d="M3.25 7.508a.75.75 0 01.748-.748H15.35a.749.749 0 010 1.495H3.998c-.412-.015-.748-.335-.748-.747z" fill="#C2CFE0"/><path d="M3.25 7.508c0-.184.076-.382.214-.52a.746.746 0 011.053 0l4.272 4.274c.29.29.29.762 0 1.053a.746.746 0 01-1.053 0L3.464 8.042a.82.82 0 01-.214-.534z" fill="#C2CFE0"/><path d="M3.25 7.508c0-.184.076-.382.214-.52l4.272-4.272a.746.746 0 011.053 0c.29.29.29.763 0 1.053L4.517 8.042a.746.746 0 01-1.053 0 .82.82 0 01-.214-.534z" fill="#C2CFE0"/><path d="M0 12.65V2.365C0 1.083 1.083 0 2.365 0h3.281a.749.749 0 010 1.495h-3.28a.906.906 0 00-.886.885v10.285c0 .458.397.84.885.84h3.281a.749.749 0 010 1.495h-3.28C1.067 14.97 0 13.932 0 12.65z" fill="#C2CFE0"/></svg>