<svg width="16" height="14" fill="none" xmlns="http://www.w3.org/2000/svg"><path fill-rule="evenodd" clip-rule="evenodd" d="M1.778 1.75h12.447s-.003 2.915-.003 8.745c0 .002-3.555.005-10.666.005h-.42l-1.358.668V1.75zM16 10.495v-8.74a1.725 1.725 0 00-.517-1.239A1.78 1.78 0 0014.227 0H1.773C.793 0 0 .781 0 1.745V14l3.556-1.75h10.66a1.807 1.807 0 001.262-.514A1.754 1.754 0 0016 10.495z" fill="#00C2FF"/><path fill-rule="evenodd" clip-rule="evenodd" d="M12.444 5.25H3.556V3.5h8.888v1.75zm0 3.5H8.89V7h3.555v1.75z" fill="#00C2FF"/></svg>