<svg width="27" height="14" fill="none" xmlns="http://www.w3.org/2000/svg"><rect width="27" height="14" rx="3" fill="#885AF8"/><path d="M9.28 7.42c0 1.163-.291 2.066-.874 2.71-.58.645-1.401.968-2.466.968-1.077 0-1.905-.32-2.485-.957-.576-.642-.864-1.551-.864-2.73 0-1.178.29-2.083.869-2.715.583-.631 1.413-.947 2.49-.947 1.061 0 1.882.32 2.461.962.58.641.87 1.545.87 2.71zm-5.449 0c0 .88.177 1.547.532 2.003.355.452.88.679 1.577.679.694 0 1.216-.225 1.568-.674.355-.45.532-1.118.532-2.007 0-.876-.176-1.54-.527-1.992-.349-.453-.87-.679-1.563-.679-.7 0-1.229.226-1.587.679-.355.452-.532 1.116-.532 1.992zM14.851 11h-4.038V3.861h4.039v.987H11.98V6.79h2.69v.977h-2.69v2.24h2.872V11zm4.634 0l-2.07-5.962h-.039c.055.885.083 1.716.083 2.49V11h-1.06V3.861h1.646l1.982 5.679h.03l2.04-5.679h1.651V11h-1.123V7.47c0-.355.008-.817.024-1.387.02-.57.036-.915.05-1.035h-.04L20.516 11h-1.03z" fill="#fff"/></svg>