<svg width="144" height="36" fill="none" xmlns="http://www.w3.org/2000/svg"><path d="M48.636 19.494l1.389-3.26h5.956l1.389 3.26h3.078L54.411 5.327h-2.776l-6.037 14.167h3.038zM53.003 8.95l2.052 4.89H50.93l2.073-4.89zm16.551 10.826c1.771 0 3.22-.544 4.347-1.63 1.147-1.087 1.71-2.616 1.71-4.568v-8.17h-2.897v8.27c0 2.234-1.288 3.38-3.16 3.38-1.851 0-3.139-1.146-3.139-3.38v-8.27h-2.877v8.17c0 1.952.563 3.48 1.69 4.567 1.127 1.087 2.576 1.63 4.326 1.63zm9.425-11.772h4.447v11.49h2.897V8.004h4.468V5.408H78.979v2.596zm18.083 7.746c-.825-.864-1.227-1.971-1.227-3.3 0-1.327.402-2.434 1.227-3.3.825-.865 1.871-1.307 3.119-1.307 1.248 0 2.274.442 3.099 1.308.825.865 1.248 1.972 1.248 3.3 0 1.328-.423 2.435-1.248 3.3-.825.865-1.851 1.308-3.099 1.308-1.248 0-2.294-.443-3.119-1.308zm-4.186-3.3c0 2.033.685 3.764 2.073 5.192 1.389 1.43 3.14 2.134 5.232 2.134 2.093 0 3.823-.705 5.212-2.134 1.388-1.428 2.093-3.159 2.093-5.191 0-2.053-.705-3.783-2.093-5.192-1.389-1.428-3.119-2.133-5.212-2.133-2.093 0-3.843.705-5.232 2.133-1.388 1.409-2.073 3.14-2.073 5.192zm21.532 7.044v-6.077h5.735V10.86h-5.735V8.004h7.426V5.408h-10.323v14.086h2.897zm14.125 0V5.408h-2.878v14.086h2.878zm3.655-11.49h4.447v11.49h2.898V8.004H144V5.408h-11.812v2.596z" fill="#00C2FF"/><path d="M46.46 30.184v-3.17h2.189v3.17h.543v-3.645h-3.275v3.645h.544zm5.053-3.169c-.37.37-.551.822-.551 1.35 0 .528.18.981.55 1.35.37.37.838.56 1.42.56.58 0 1.048-.19 1.418-.56.37-.369.55-.822.55-1.35 0-.528-.18-.98-.55-1.35-.37-.378-.838-.567-1.419-.567-.58 0-1.049.19-1.418.567zm2.83 1.35c0 .4-.136.74-.4 1.011-.265.272-.604.408-1.012.408-.407 0-.747-.136-1.01-.408a1.401 1.401 0 01-.4-1.01c0-.408.135-.748.4-1.02.263-.271.603-.407 1.01-.407.408 0 .747.136 1.012.407.264.272.4.612.4 1.02zm2.244 2.898v-1.08h3.426v1.08h.528v-1.555h-.679V26.54h-2.709l-.007.513c-.008 1.23-.212 2.12-.62 2.656h-.46v1.555h.521zm.544-1.555c.354-.566.528-1.388.528-2.475v-.218h1.66v2.693H57.13zm6.839.566c.521 0 .951-.173 1.306-.52.355-.348.528-.793.528-1.344 0-.498-.158-.905-.483-1.222a1.627 1.627 0 00-1.2-.483c-.724 0-1.312.325-1.614.845.022-.611.173-1.056.452-1.35.28-.295.695-.498 1.245-.627.28-.068.68-.15 1.2-.249v-.505c-.271.052-.498.09-.671.128-.174.038-.37.083-.596.143-.22.053-.4.113-.544.166-.279.113-.664.294-.868.498-.46.423-.732 1.072-.732 2.106 0 .747.174 1.335.521 1.765.347.43.83.65 1.456.65zm0-.49c-.867 0-1.365-.596-1.418-1.615.113-.264.302-.49.566-.68a1.45 1.45 0 01.883-.293c.354 0 .649.113.89.347.242.226.362.528.362.905 0 .393-.128.717-.377.966-.249.25-.55.37-.906.37zm3.889-2.769c-.37.37-.551.822-.551 1.35 0 .528.181.981.55 1.35.37.37.838.56 1.42.56.58 0 1.048-.19 1.418-.56.37-.369.551-.822.551-1.35 0-.528-.181-.98-.55-1.35-.37-.378-.838-.567-1.42-.567-.58 0-1.048.19-1.418.567zm2.83 1.35c0 .4-.136.74-.4 1.011-.264.272-.604.408-1.011.408-.408 0-.748-.136-1.012-.408a1.401 1.401 0 01-.4-1.01c0-.408.136-.748.4-1.02.264-.271.604-.407 1.011-.407.408 0 .748.136 1.012.407.264.272.4.612.4 1.02zm2.868 1.238c.34.445.807.671 1.41.671.537 0 .982-.188 1.321-.558.34-.37.514-.823.514-1.358 0-.529-.174-.981-.514-1.351s-.784-.559-1.32-.559c-.604 0-1.072.227-1.411.672v-.58h-.544v5.153h.544v-2.09zm0-1.841a1.445 1.445 0 011.283-.823c.4 0 .74.136 1.003.407.264.272.4.612.4 1.012s-.136.74-.4 1.018a1.348 1.348 0 01-1.003.408c-.551 0-1.072-.34-1.283-.823v-1.2zm8.983 2.022c-.566 0-.997-.257-.997-.747 0-.453.415-.732 1.08-.732.415 0 .814.12 1.184.362v.506a1.682 1.682 0 01-1.267.61zm-.151.49c.61 0 1.101-.211 1.471-.641.06.392.332.581.687.581.166 0 .287-.03.362-.083v-.423a.46.46 0 01-.211.046c-.212 0-.347-.174-.347-.453v-1.502c0-.883-.657-1.35-1.63-1.35-.521 0-.951.113-1.306.331v.529c.37-.25.762-.37 1.192-.37.8 0 1.2.302 1.2.913v.362a2.557 2.557 0 00-1.313-.354c-.43 0-.784.105-1.071.324-.28.219-.423.513-.423.883 0 .377.136.672.4.89.272.212.604.317.989.317zm6.201-.09c.777 0 1.214-.378 1.214-.981 0-.49-.234-.8-.694-.936.302-.143.453-.407.453-.8 0-.55-.4-.928-1.102-.928h-1.916v3.645h2.044zm-1.502-1.645h1.388c.49 0 .778.219.778.588 0 .37-.287.581-.778.581h-1.388v-1.17zm0-1.524h1.222c.453 0 .717.18.717.535 0 .34-.264.536-.717.536h-1.222v-1.071zm5.815 3.169v-3.17h1.321v-.475H91.04v.476h1.32v3.169h.543zm3.101-3.169c-.37.37-.55.822-.55 1.35 0 .528.18.981.55 1.35.37.37.838.56 1.419.56.581 0 1.049-.19 1.419-.56.37-.369.55-.822.55-1.35 0-.528-.18-.98-.55-1.35-.37-.378-.838-.567-1.419-.567-.581 0-1.049.19-1.419.567zm2.83 1.35c0 .4-.136.74-.4 1.011-.264.272-.603.408-1.011.408-.407 0-.747-.136-1.011-.408a1.401 1.401 0 01-.4-1.01c0-.408.136-.748.4-1.02.264-.271.604-.407 1.011-.407.407 0 .747.136 1.011.407.264.272.4.612.4 1.02zm3.281 1.909c1.034 0 1.698-.452 1.698-1.124 0-.46-.249-.762-.74-.92.294-.129.558-.303.589-.823 0-.287-.144-.52-.423-.694-.279-.174-.626-.265-1.049-.265-.513 0-.951.076-1.305.234v.506a3.05 3.05 0 011.2-.249c.686 0 1.026.189 1.026.566 0 .31-.272.528-.853.528h-.634v.476h.634c.604 0 .989.21.989.603 0 .43-.468.672-1.2.672a2.97 2.97 0 01-1.275-.287v.528c.369.166.815.25 1.343.25zm4.779-.49c-.565 0-.996-.257-.996-.747 0-.453.415-.732 1.079-.732.415 0 .815.12 1.185.362v.506a1.682 1.682 0 01-1.268.61zm-.15.49c.611 0 1.101-.211 1.471-.641.06.392.332.581.687.581.166 0 .286-.03.362-.083v-.423a.457.457 0 01-.211.046c-.212 0-.348-.174-.348-.453v-1.502c0-.883-.656-1.35-1.629-1.35-.521 0-.951.113-1.306.331v.529c.37-.25.762-.37 1.192-.37.8 0 1.2.302 1.2.913v.362a2.555 2.555 0 00-1.313-.354c-.43 0-.785.105-1.071.324-.28.219-.423.513-.423.883 0 .377.136.672.4.89.272.212.604.317.989.317zm4.699-.09v-3.17h2.188v3.17h.543v-3.645h-3.275v3.645h.544zm7.731 0v-3.645h-.544v1.683a2.202 2.202 0 01-1.018.241c-.755 0-1.042-.271-1.042-1.056v-.868h-.543v.913c0 1.087.475 1.502 1.479 1.502.4 0 .77-.076 1.124-.227v1.457h.544zm3.271-.4c-.566 0-.996-.257-.996-.747 0-.453.415-.732 1.079-.732.415 0 .815.12 1.184.362v.506a1.682 1.682 0 01-1.267.61zm-.151.49c.611 0 1.102-.211 1.471-.641.061.392.332.581.687.581.166 0 .287-.03.362-.083v-.423a.457.457 0 01-.211.046c-.211 0-.347-.174-.347-.453v-1.502c0-.883-.657-1.35-1.63-1.35-.521 0-.951.113-1.306.331v.529c.37-.25.763-.37 1.193-.37.8 0 1.199.302 1.199.913v.362a2.553 2.553 0 00-1.313-.354c-.43 0-.784.105-1.071.324a1.068 1.068 0 00-.423.883c0 .377.136.672.4.89.272.212.604.317.989.317zm5.831 0c.445 0 .838-.105 1.177-.31v-.497a1.955 1.955 0 01-1.094.317c-.415 0-.77-.136-1.049-.4a1.36 1.36 0 01-.415-1.019c0-.415.136-.754.415-1.018.279-.272.634-.408 1.049-.408.355 0 .694.09 1.026.28v-.506a2.223 2.223 0 00-1.101-.265c-.551 0-1.019.182-1.389.551-.37.363-.558.815-.558 1.359 0 .55.181 1.003.551 1.373.369.362.837.543 1.388.543zm4.404-.09v-3.17h1.32v-.475h-3.184v.476h1.32v3.169h.544zm4.557.09c.551 0 .973-.113 1.275-.347v-.483a2.13 2.13 0 01-1.169.34c-.876 0-1.495-.506-1.555-1.29h2.996v-.151c0-.823-.483-1.895-1.706-1.895-.543 0-.988.182-1.335.551-.34.363-.513.815-.513 1.366 0 .559.188 1.019.573 1.374.385.354.868.535 1.434.535zm-1.441-2.226a1.2 1.2 0 01.369-.777c.227-.219.521-.332.891-.332.385 0 .671.113.86.347.196.226.302.483.317.762h-2.437zm5.269 2.136l2.332-2.838v2.838h.543v-3.645h-.506l-2.331 2.845v-2.845h-.544v3.645h.506zm1.192-4.264c.694 0 1.208-.453 1.215-1.147h-.475c-.008.415-.302.71-.747.71-.453 0-.747-.295-.747-.71h-.483c.007.695.505 1.147 1.237 1.147z" fill="#707683"/><path fill-rule="evenodd" clip-rule="evenodd" d="M0 17.598C0 7.886 7.89 0 17.607 0c9.735 0 17.608 7.886 17.608 17.616 0 9.712-7.891 17.599-17.608 17.599a17.52 17.52 0 01-11.419-4.218l6.118-6.115a8.996 8.996 0 005.301 1.737c4.965 0 9.008-4.04 9.008-9.003 0-4.962-4.043-9.003-9.008-9.003-4.964 0-9.007 4.04-9.007 9.003 0 1.967.656 3.793 1.737 5.281L4.22 29.012C1.596 25.928 0 21.958 0 17.598zm23.813 0a6.211 6.211 0 01-6.206 6.203c-3.422 0-6.223-2.782-6.206-6.203a6.211 6.211 0 016.206-6.202 6.211 6.211 0 016.206 6.202z" fill="#00C2FF"/></svg>