<svg width="24" height="24" fill="none" xmlns="http://www.w3.org/2000/svg"><circle cx="12" cy="12" r="12" fill="#C4C4C4"/><path d="M12 20.821c-4.821 0-8.786-4-8.786-8.821 0-1 .179-1.964.5-2.893l5.143 10c.072.143.143.25.322.25.178 0 .25-.107.321-.25l2.393-5.321c.036-.072.071-.107.107-.107.071 0 .071.071.107.107l2.429 5.321c.071.143.143.25.321.25.179 0 .25-.107.322-.25l5.142-10c.322.893.5 1.857.5 2.893-.035 4.821-4 8.821-8.821 8.821zm0-11.107c-.071 0-.071-.071-.107-.107L9.143 3.68a8.43 8.43 0 015.714 0l-2.75 5.928c-.036.036-.036.107-.107.107zm-2.893 6.429c-.071 0-.071-.072-.107-.107L4.5 7.393c.786-1.286 1.929-2.357 3.25-3.107l3.179 6.857c.071.143.142.178.25.178h1.642c.108 0 .179-.035.25-.178l3.143-6.857c1.322.75 2.465 1.821 3.25 3.107L15 16.036c-.036.071-.071.107-.107.107-.072 0-.072-.072-.107-.107L13.07 12.25c-.071-.143-.142-.179-.25-.179h-1.64c-.108 0-.179.036-.25.179l-1.715 3.786c-.035.035-.035.107-.107.107zM12 22c5.536 0 10-4.464 10-10S17.536 2 12 2 2 6.464 2 12s4.464 10 10 10z" fill="#fff"/></svg>