<svg width="24" height="24" fill="none" xmlns="http://www.w3.org/2000/svg"><circle cx="12" cy="12" r="12" fill="#C4C4C4"/><path d="M11.448 16.993a19.873 19.873 0 01-2.042-.163c-2.756-.37-5.066-1.312-6.352-2.591-.545-.543-.89-1.139-1.007-1.738A2.162 2.162 0 012 12c0-.21.009-.306.047-.501.076-.394.258-.8.527-1.176.607-.852 1.672-1.61 3.07-2.184 2.33-.958 5.38-1.338 8.35-1.04 3.486.351 6.355 1.62 7.493 3.315.52.774.648 1.616.37 2.438-.162.475-.474.95-.914 1.387-1.218 1.212-3.362 2.126-5.936 2.53-1.15.182-2.337.256-3.559.224zm1.521-.64c1.396-.086 2.574-.29 3.723-.646.91-.282 1.76-.672 2.412-1.109a4.99 4.99 0 00.815-.663 3.23 3.23 0 00.664-.903c.18-.367.25-.655.25-1.032a2.19 2.19 0 00-.257-1.049 3.284 3.284 0 00-.657-.886c-.44-.439-.961-.8-1.65-1.145-1.292-.644-2.907-1.066-4.706-1.228a18.2 18.2 0 00-3.128 0c-2.53.227-4.701.976-6.045 2.084a5.53 5.53 0 00-.601.605c-.456.57-.67 1.183-.622 1.775.054.644.345 1.212.912 1.78.43.429.94.785 1.605 1.12 1.512.763 3.371 1.2 5.557 1.307.247.012 1.487.005 1.728-.01zm-7.09-1.826a.152.152 0 01-.044-.033c-.022-.024-.022-.041-.025-2.35l-.003-2.327-.029-.03c-.027-.029-.035-.03-.139-.033l-.11-.003v-.294l.792-.003.793-.002.033.028.034.028v.839c0 .921-.003.887.064.887.041 0 .055-.017.285-.342.609-.862.944-1.33.974-1.363.074-.08.04-.077.811-.077h.69l.026.026c.033.032.045.076.03.108-.01.02-.308.461-1.35 1.998-.114.168-.146.223-.146.25 0 .029.075.14.39.584 1.398 1.966 1.402 1.972 1.406 2.012.004.03-.002.046-.023.07l-.027.032-.72.003c-.71.003-.722.003-.774-.02a.284.284 0 01-.08-.052 81.466 81.466 0 01-.73-1.012c-.387-.541-.71-.99-.72-.998-.027-.022-.076-.012-.092.02-.01.021-.014.242-.014 1.012v.986l-.027.03-.026.031-.614.002a11.99 11.99 0 01-.636-.007zm5.471-.004a.105.105 0 01-.046-.044c-.01-.023-.014-.54-.014-2.345V9.82l-.032-.032c-.03-.03-.035-.032-.136-.032h-.104v-.304h1.613l.035.031.036.032v4.957l-.03.03-.03.03-.63.002c-.504.002-.636 0-.662-.011zm2.344.001c-.034-.019-.049-.043-.049-.081 0-.02.155-.496.344-1.06a32099.969 32099.969 0 011.088-3.235c.052-.152.094-.29.094-.306a.104.104 0 00-.02-.055c-.02-.023-.033-.026-.129-.031l-.107-.005-.003-.15-.003-.15h.967c.636 0 .982.005 1.009.012a.102.102 0 01.053.034c.013.025.122.345.633 1.867.832 2.477 1.023 3.048 1.023 3.072 0 .038-.022.076-.051.09-.019.008-.212.011-.634.011-.556 0-.61-.001-.644-.019a.192.192 0 01-.058-.046 8.804 8.804 0 01-.188-.549c-.88-2.733-.855-2.659-.875-2.68-.022-.025-.039-.025-.061 0-.018.02-.052.124-.53 1.627a809.917 809.917 0 01-.459 1.437c-.049.155-.07.192-.126.216-.048.02-1.24.021-1.274.001z" fill="#fff"/></svg>