<svg width="24" height="24" fill="none" xmlns="http://www.w3.org/2000/svg"><circle cx="12" cy="12" r="12" fill="#C4C4C4"/><path d="M12.37 19.916c-4.272 0-7.815-3.544-7.815-7.816 0-.222.01-.442.03-.66l6.538.408-2.828 1.954a.149.149 0 00.085.27h11.548c-.888 3.338-3.965 5.844-7.558 5.844zm0-15.631c4.273 0 7.816 3.543 7.816 7.815 0 .22-.01.44-.029.656l-6.533-.415 2.835-1.943a.148.148 0 00-.084-.27H4.813c.888-3.337 3.965-5.843 7.558-5.843zm11.21 8.688l-2.139-.136a9.1 9.1 0 00-17.956-2.709H1.806a.34.34 0 00-.27.134l-.5.69a.17.17 0 00.135.275l2.13.133a9.1 9.1 0 0017.955 2.712h1.688a.34.34 0 00.27-.133l.5-.69a.17.17 0 00-.135-.276z" fill="#fff"/></svg>