<svg width="17" height="17" fill="none" xmlns="http://www.w3.org/2000/svg"><path d="M11.06 8.497a2.558 2.558 0 11-5.116-.001 2.558 2.558 0 015.116.001zM8.503 0C3.814 0 0 3.814 0 8.503 0 13.19 3.814 17 8.503 17a8.448 8.448 0 004.79-1.481l.026-.016-1.146-1.332-.021.01a6.758 6.758 0 01-3.65 1.072 6.764 6.764 0 01-6.755-6.756 6.764 6.764 0 016.756-6.755 6.764 6.764 0 016.755 6.755c0 .485-.053.97-.16 1.455-.213.879-.826 1.145-1.29 1.108-.463-.037-1.006-.368-1.011-1.178V8.497a4.305 4.305 0 00-4.3-4.299 4.305 4.305 0 00-4.299 4.3 4.305 4.305 0 004.3 4.299c1.15 0 2.232-.453 3.047-1.268a2.766 2.766 0 002.125 1.268 2.89 2.89 0 001.955-.57c.512-.39.89-.949 1.098-1.62.032-.106.096-.357.096-.357v-.01A7.578 7.578 0 0017 8.496C17.005 3.814 13.19 0 8.503 0z" fill="#FF9F00"/></svg>