<svg width="11" height="18" fill="none" xmlns="http://www.w3.org/2000/svg"><path d="M4.607 12.643c-1.42-.151-2.705-.493-3.799-1.346-.134-.113-.268-.208-.403-.322-.48-.455-.537-.985-.153-1.516.326-.455.863-.588 1.439-.322.115.056.21.113.307.19 2.034 1.383 4.854 1.42 6.907.056.211-.152.422-.284.672-.341.498-.133.94.057 1.208.474.307.474.288.947-.076 1.326a5.893 5.893 0 01-2.015 1.29c-.71.265-1.497.417-2.283.511.115.133.172.19.25.266 1.054 1.042 2.11 2.085 3.165 3.146.364.36.441.796.23 1.213-.21.455-.69.758-1.17.72-.307-.018-.537-.17-.748-.379-.787-.796-1.612-1.573-2.38-2.369-.23-.227-.345-.19-.537.019-.806.815-1.611 1.611-2.437 2.407-.364.36-.805.417-1.227.228-.46-.209-.749-.683-.71-1.138.019-.303.172-.55.383-.758l3.128-3.09c.077-.094.134-.17.25-.265z" fill="#fff"/><path d="M5.472 9C3.012 9 1 6.95 1 4.49A4.513 4.513 0 015.528 0C8.025 0 10.018 2.05 10 4.565 9.98 7.025 7.95 9.018 5.472 9zm2.236-4.51a2.19 2.19 0 00-2.199-2.198c-1.23 0-2.217.987-2.198 2.217 0 1.211.987 2.18 2.217 2.18 1.211.019 2.18-.969 2.18-2.198z" fill="#fff"/></svg>