<svg width="25" height="14" fill="none" xmlns="http://www.w3.org/2000/svg"><path d="M24.869 12.636a2.615 2.615 0 00-.087-.16c-.433-.765-1.263-1.709-2.484-2.822l-.028-.027-.013-.013-.014-.013h-.014c-.556-.519-.907-.868-1.053-1.047-.269-.34-.328-.684-.182-1.032.105-.264.497-.823 1.171-1.672.356-.452.639-.814.848-1.087 1.5-1.958 2.152-3.21 1.952-3.75l-.078-.126c-.05-.076-.187-.147-.401-.21-.219-.063-.497-.076-.834-.031l-3.748.027c-.06-.023-.146-.018-.26.004l-.168.04-.064.032-.05.04a.552.552 0 00-.142.134.823.823 0 00-.127.223 20.589 20.589 0 01-1.395 2.87c-.32.528-.616.984-.885 1.373-.269.39-.492.67-.674.854a4.133 4.133 0 01-.497.438c-.146.112-.26.157-.338.139-.077-.018-.15-.036-.223-.05a.814.814 0 01-.292-.312 1.456 1.456 0 01-.15-.497 4.96 4.96 0 01-.046-.518c-.005-.143 0-.349.005-.613.009-.263.013-.442.013-.536 0-.322.005-.675.018-1.055.014-.38.023-.68.033-.899.009-.219.013-.456.013-.702 0-.246-.014-.438-.046-.58a2.143 2.143 0 00-.136-.408.714.714 0 00-.27-.308 1.639 1.639 0 00-.437-.175c-.46-.102-1.044-.156-1.755-.165-1.614-.018-2.649.085-3.11.308a1.68 1.68 0 00-.492.385c-.155.188-.177.29-.063.308.52.076.889.26 1.107.55l.078.152c.06.112.123.309.182.586.06.282.1.59.119.93a10.29 10.29 0 010 1.596c-.046.443-.087.787-.123 1.033a1.966 1.966 0 01-.178.599 3.87 3.87 0 01-.155.281.202.202 0 01-.064.063c-.114.04-.228.063-.351.063-.123 0-.269-.059-.442-.18A2.956 2.956 0 018 6.186c-.187-.21-.397-.5-.634-.876a15.691 15.691 0 01-.73-1.328l-.209-.371c-.132-.237-.31-.586-.533-1.042a18.094 18.094 0 01-.598-1.323.824.824 0 00-.314-.407l-.064-.04A.73.73 0 004.71.69a1.363 1.363 0 00-.3-.084L.842.632C.48.632.233.712.1.874L.05.95a.392.392 0 00-.05.219c0 .094.027.21.078.344a41.834 41.834 0 001.7 3.474 37.423 37.423 0 001.596 2.691c.45.68.911 1.324 1.38 1.927.47.604.78.993.931 1.162.15.17.274.3.36.385l.324.309c.21.205.515.447.916.733.406.286.853.567 1.34.845.493.277 1.063.5 1.71.675a5.985 5.985 0 001.901.21h1.495c.306-.027.534-.12.689-.282l.05-.062a.71.71 0 00.096-.237 1.23 1.23 0 00.045-.354 3.896 3.896 0 01.087-.988c.064-.295.137-.514.223-.661a1.77 1.77 0 01.278-.376c.105-.103.178-.165.224-.183a.612.612 0 01.105-.045c.21-.067.451 0 .734.197.282.201.547.447.793.742s.542.621.893.988c.347.367.652.64.912.818l.26.152c.173.103.401.197.68.282.277.085.52.107.729.063l3.332-.05c.329 0 .588-.053.766-.16.183-.108.292-.224.324-.354a.923.923 0 00.005-.434 1.69 1.69 0 00-.087-.344z" fill="#fff"/></svg>