<svg width="26" height="26" fill="none" xmlns="http://www.w3.org/2000/svg"><path d="M22.158 3.776A12.905 12.905 0 0012.999 0a12.97 12.97 0 00-9.172 3.772C1.362 6.21.003 9.448 0 12.88v.006c0 2.077.547 4.172 1.583 6.085L.036 26l7.116-1.617a13.036 13.036 0 005.842 1.387H13c3.453 0 6.71-1.34 9.172-3.773 2.467-2.44 3.826-5.674 3.828-9.107.001-3.41-1.363-6.647-3.842-9.114zM12.999 23.74h-.004a10.98 10.98 0 01-5.219-1.321l-.336-.183-4.733 1.076 1.028-4.668-.198-.34c-.985-1.698-1.506-3.572-1.506-5.42C2.035 6.902 6.955 2.029 13 2.029a10.886 10.886 0 017.725 3.184c2.093 2.084 3.246 4.81 3.245 7.676C23.967 18.872 19.046 23.74 13 23.74z" fill="#25D366"/><path d="M9.386 7h-.565c-.197 0-.517.08-.788.398C7.763 7.717 7 8.487 7 10.053c0 1.566 1.058 3.08 1.206 3.293.147.212 2.042 3.529 5.043 4.805 2.494 1.06 3.002.85 3.543.796.541-.053 1.747-.77 1.993-1.513.246-.743.246-1.38.172-1.514-.074-.132-.27-.212-.566-.37-.295-.16-1.742-.943-2.013-1.05-.27-.106-.467-.159-.664.16-.197.318-.777 1.054-.95 1.267-.171.213-.344.24-.64.08-.295-.16-1.236-.502-2.364-1.586-.877-.844-1.487-1.92-1.659-2.24-.172-.317-.018-.49.13-.649a9.07 9.07 0 00.46-.523c.147-.186.189-.319.287-.53.099-.213.05-.4-.024-.558-.074-.16-.64-1.734-.903-2.363-.221-.53-.454-.549-.665-.558z" fill="#25D366"/></svg>