<svg width="16" height="14" viewBox="0 0 16 14" fill="none" xmlns="http://www.w3.org/2000/svg">
<path fill-rule="evenodd" clip-rule="evenodd" d="M1.77778 1.75H14.2249C14.2249 1.75 14.2222 4.66463 14.2222 10.4948C14.2222 10.4974 10.6667 10.5 3.55555 10.5H3.136L1.77778 11.1685V1.75ZM16 10.4948V1.75525C16.0007 1.52536 15.9554 1.29759 15.8666 1.08495C15.7779 0.87231 15.6474 0.678966 15.4828 0.515964C15.3181 0.352963 15.1224 0.223498 14.9069 0.134967C14.6913 0.0464362 14.4602 0.000573683 14.2267 0H1.77333C0.793778 0 0 0.781375 0 1.74475V14L3.55555 12.25H14.2169C14.4511 12.2501 14.683 12.2048 14.8994 12.1166C15.1158 12.0285 15.3124 11.8992 15.478 11.7362C15.6436 11.5731 15.7749 11.3796 15.8645 11.1666C15.9541 10.9536 16.0001 10.7253 16 10.4948Z" fill="#00C2FF"/>
<path fill-rule="evenodd" clip-rule="evenodd" d="M12.4444 5.25H3.55555V3.5H12.4444V5.25ZM12.4444 8.75H8.88888V7H12.4444V8.75Z" fill="#00C2FF"/>
</svg>
