<svg width="27" height="14" viewBox="0 0 27 14" fill="none" xmlns="http://www.w3.org/2000/svg">
<rect width="27" height="14" rx="3" fill="#885AF8"/>
<path d="M9.28027 7.4209C9.28027 8.58301 8.98893 9.48633 8.40625 10.1309C7.82682 10.7754 7.00488 11.0977 5.94043 11.0977C4.86296 11.0977 4.03451 10.7786 3.45508 10.1406C2.87891 9.49935 2.59082 8.58952 2.59082 7.41113C2.59082 6.23275 2.88053 5.3278 3.45996 4.69629C4.04264 4.06478 4.87272 3.74902 5.9502 3.74902C7.01139 3.74902 7.83171 4.06966 8.41113 4.71094C8.99056 5.35221 9.28027 6.25553 9.28027 7.4209ZM3.83105 7.4209C3.83105 8.2998 4.00846 8.96712 4.36328 9.42285C4.7181 9.87533 5.24382 10.1016 5.94043 10.1016C6.63379 10.1016 7.15625 9.87695 7.50781 9.42773C7.86263 8.97852 8.04004 8.30957 8.04004 7.4209C8.04004 6.54525 7.86426 5.88118 7.5127 5.42871C7.16439 4.97624 6.64355 4.75 5.9502 4.75C5.25033 4.75 4.72135 4.97624 4.36328 5.42871C4.00846 5.88118 3.83105 6.54525 3.83105 7.4209ZM14.8516 11H10.8135V3.86133H14.8516V4.84766H11.9805V6.79102H14.6709V7.76758H11.9805V10.0088H14.8516V11ZM19.4854 11L17.415 5.03809H17.376C17.4313 5.9235 17.459 6.75358 17.459 7.52832V11H16.3994V3.86133H18.0449L20.0273 9.54004H20.0566L22.0977 3.86133H23.748V11H22.625V7.46973C22.625 7.11491 22.6331 6.65267 22.6494 6.08301C22.6689 5.51335 22.6852 5.16829 22.6982 5.04785H22.6592L20.5156 11H19.4854Z" fill="white"/>
</svg>
