<svg width="17" height="15" viewBox="0 0 17 15" fill="none" xmlns="http://www.w3.org/2000/svg">
<path d="M3.25022 7.5076C3.25022 7.0956 3.58592 6.75989 3.99792 6.75989L15.3509 6.75989C15.7629 6.75989 16.0986 7.0956 16.0986 7.5076C16.0986 7.91961 15.7629 8.25531 15.3509 8.25531L3.99792 8.25531C3.58592 8.24005 3.25022 7.91961 3.25022 7.5076Z" fill="#C2CFE0"/>
<path d="M3.25022 7.5076C3.25022 7.32449 3.32641 7.12627 3.46374 6.98893C3.75367 6.699 4.22671 6.699 4.51664 6.98893L8.78928 11.2616C9.07921 11.5515 9.07921 12.0245 8.78928 12.3145C8.49935 12.6044 8.0263 12.6044 7.73638 12.3145L3.46374 8.04183C3.32641 7.88924 3.25022 7.69072 3.25022 7.5076Z" fill="#C2CFE0"/>
<path d="M3.25022 7.5076C3.25022 7.32449 3.32641 7.12627 3.46374 6.98893L7.73638 2.71623C8.0263 2.4263 8.49935 2.4263 8.78928 2.71623C9.07921 3.00615 9.07921 3.4792 8.78928 3.76913L4.51664 8.04176C4.22671 8.33169 3.75367 8.33176 3.46374 8.04183C3.32641 7.88924 3.25022 7.69072 3.25022 7.5076Z" fill="#C2CFE0"/>
<path d="M0 12.6501L4.49565e-07 2.36521C5.05594e-07 1.08342 1.08342 -5.60288e-08 2.36521 0L5.64598 1.43407e-07C6.05799 1.61417e-07 6.39369 0.335711 6.39369 0.747715C6.39369 1.15972 6.05799 1.49542 5.64598 1.49542L2.36521 1.49542C1.89217 1.49542 1.48016 1.90742 1.48016 2.38046L1.48016 12.6653C1.48016 13.1231 1.87691 13.5046 2.36521 13.5046H5.64598C6.05799 13.5046 6.39369 13.8403 6.39369 14.2523C6.39369 14.6643 6.05799 15 5.64598 15H2.36521C1.06816 14.9695 -5.60288e-08 13.9318 0 12.6501Z" fill="#C2CFE0"/>
</svg>
