<svg width="144" height="36" viewBox="0 0 144 36" fill="none" xmlns="http://www.w3.org/2000/svg">
<path d="M48.6363 19.4937L50.0247 16.2339H55.981L57.3695 19.4937H60.4482L54.4115 5.32745H51.6345L45.5978 19.4937H48.6363ZM53.0029 8.94951L55.0554 13.8393H50.9303L53.0029 8.94951Z" fill="#00C2FF"/>
<path d="M69.5543 19.7755C71.3251 19.7755 72.7739 19.2321 73.9008 18.1455C75.0478 17.0589 75.6112 15.5296 75.6112 13.5777V5.40794H72.7136V13.6783C72.7136 15.9119 71.4257 17.0589 69.5543 17.0589C67.703 17.0589 66.4152 15.9119 66.4152 13.6783V5.40794H63.5377V13.5777C63.5377 15.5296 64.1011 17.0589 65.228 18.1455C66.3548 19.2321 67.8037 19.7755 69.5543 19.7755Z" fill="#00C2FF"/>
<path d="M78.9788 8.00375H83.4258V19.4937H86.3235V8.00375H90.7907V5.40794H78.9788V8.00375Z" fill="#00C2FF"/>
<path d="M97.062 15.7509C96.237 14.8857 95.8346 13.7789 95.8346 12.4508C95.8346 11.1227 96.237 10.016 97.062 9.15074C97.8871 8.28546 98.9334 7.84277 100.181 7.84277C101.429 7.84277 102.455 8.28546 103.28 9.15074C104.105 10.016 104.528 11.1227 104.528 12.4508C104.528 13.7789 104.105 14.8857 103.28 15.7509C102.455 16.6162 101.429 17.0589 100.181 17.0589C98.9334 17.0589 97.8871 16.6162 97.062 15.7509ZM92.8765 12.4508C92.8765 14.4832 93.5607 16.2138 94.9492 17.6425C96.3376 19.0712 98.0883 19.7755 100.181 19.7755C102.274 19.7755 104.004 19.0712 105.393 17.6425C106.781 16.2138 107.486 14.4832 107.486 12.4508C107.486 10.3983 106.781 8.66779 105.393 7.25921C104.004 5.83051 102.274 5.12622 100.181 5.12622C98.0883 5.12622 96.3376 5.83051 94.9492 7.25921C93.5607 8.66779 92.8765 10.3983 92.8765 12.4508Z" fill="#00C2FF"/>
<path d="M114.408 19.4937V13.4167H120.143V10.8612H114.408V8.00375H121.834V5.40794H111.511V19.4937H114.408Z" fill="#00C2FF"/>
<path d="M128.533 19.4937V5.40794H125.655V19.4937H128.533Z" fill="#00C2FF"/>
<path d="M132.188 8.00375H136.635V19.4937H139.533V8.00375H144V5.40794H132.188V8.00375Z" fill="#00C2FF"/>
<path d="M46.4605 30.1838V27.0145H48.6489V30.1838H49.1922V26.5391H45.9172V30.1838H46.4605Z" fill="#707683"/>
<path d="M51.5127 27.0145C51.1429 27.3842 50.9618 27.837 50.9618 28.3652C50.9618 28.8934 51.1429 29.3462 51.5127 29.7159C51.8824 30.0857 52.3503 30.2743 52.9313 30.2743C53.5124 30.2743 53.9802 30.0857 54.35 29.7159C54.7197 29.3462 54.9008 28.8934 54.9008 28.3652C54.9008 27.837 54.7197 27.3842 54.35 27.0145C53.9802 26.6372 53.5124 26.4485 52.9313 26.4485C52.3503 26.4485 51.8824 26.6372 51.5127 27.0145ZM54.3424 28.3652C54.3424 28.7651 54.2066 29.1047 53.9425 29.3764C53.6784 29.648 53.3388 29.7838 52.9313 29.7838C52.5238 29.7838 52.1843 29.648 51.9202 29.3764C51.6561 29.1047 51.5202 28.7651 51.5202 28.3652C51.5202 27.9577 51.6561 27.6181 51.9202 27.3465C52.1843 27.0748 52.5238 26.939 52.9313 26.939C53.3388 26.939 53.6784 27.0748 53.9425 27.3465C54.2066 27.6181 54.3424 27.9577 54.3424 28.3652Z" fill="#707683"/>
<path d="M56.5873 31.2628V30.1838H60.0132V31.2628H60.5414V29.7084H59.8622V26.5391H57.1532L57.1457 27.0522C57.1381 28.2822 56.9344 29.1726 56.5269 29.7084H56.0666V31.2628H56.5873ZM57.1306 29.7084C57.4853 29.1424 57.6588 28.3199 57.6588 27.2333V27.0145H59.3189V29.7084H57.1306Z" fill="#707683"/>
<path d="M63.9705 30.2743C64.4912 30.2743 64.9213 30.1008 65.276 29.7537C65.6307 29.4065 65.8042 28.9613 65.8042 28.4105C65.8042 27.9124 65.6457 27.505 65.3213 27.188C64.9968 26.8635 64.5969 26.7051 64.1215 26.7051C63.397 26.7051 62.8085 27.0296 62.5066 27.5502C62.5293 26.939 62.6802 26.4938 62.9594 26.1995C63.2386 25.9052 63.6536 25.7015 64.2045 25.5732C64.4837 25.5053 64.8836 25.4223 65.4043 25.3242V24.8186C65.1326 24.8714 64.9062 24.9091 64.7327 24.9469C64.5591 24.9846 64.3629 25.0299 64.1366 25.0902C63.9177 25.1431 63.7366 25.2034 63.5932 25.2563C63.314 25.3694 62.9292 25.5505 62.7255 25.7543C62.2652 26.1769 61.9935 26.8258 61.9935 27.8596C61.9935 28.6067 62.1671 29.1952 62.5142 29.6254C62.8613 30.0555 63.3442 30.2743 63.9705 30.2743ZM63.9705 29.7838C63.1028 29.7838 62.6047 29.1877 62.5519 28.169C62.6651 27.9049 62.8537 27.6785 63.1178 27.4899C63.382 27.2937 63.6762 27.1956 64.0007 27.1956C64.3554 27.1956 64.6497 27.3088 64.8911 27.5427C65.1326 27.7691 65.2534 28.0709 65.2534 28.4482C65.2534 28.8406 65.1251 29.1651 64.8761 29.4141C64.627 29.6631 64.3252 29.7838 63.9705 29.7838Z" fill="#707683"/>
<path d="M67.8588 27.0145C67.4891 27.3842 67.308 27.837 67.308 28.3652C67.308 28.8934 67.4891 29.3462 67.8588 29.7159C68.2286 30.0857 68.6964 30.2743 69.2775 30.2743C69.8585 30.2743 70.3264 30.0857 70.6961 29.7159C71.0659 29.3462 71.247 28.8934 71.247 28.3652C71.247 27.837 71.0659 27.3842 70.6961 27.0145C70.3264 26.6372 69.8585 26.4485 69.2775 26.4485C68.6964 26.4485 68.2286 26.6372 67.8588 27.0145ZM70.6886 28.3652C70.6886 28.7651 70.5527 29.1047 70.2886 29.3764C70.0245 29.648 69.685 29.7838 69.2775 29.7838C68.87 29.7838 68.5304 29.648 68.2663 29.3764C68.0022 29.1047 67.8664 28.7651 67.8664 28.3652C67.8664 27.9577 68.0022 27.6181 68.2663 27.3465C68.5304 27.0748 68.87 26.939 69.2775 26.939C69.685 26.939 70.0245 27.0748 70.2886 27.3465C70.5527 27.6181 70.6886 27.9577 70.6886 28.3652Z" fill="#707683"/>
<path d="M73.5567 29.6027C73.8963 30.0479 74.3642 30.2743 74.9678 30.2743C75.5036 30.2743 75.9488 30.0857 76.2884 29.7159C76.628 29.3462 76.8015 28.8934 76.8015 28.3576C76.8015 27.8294 76.628 27.3767 76.2884 27.0069C75.9488 26.6372 75.5036 26.4485 74.9678 26.4485C74.3642 26.4485 73.8963 26.6749 73.5567 27.1201V26.5391H73.0134V31.693H73.5567V29.6027ZM73.5567 27.7615C73.7756 27.2861 74.2887 26.939 74.8396 26.939C75.2395 26.939 75.5791 27.0748 75.8432 27.3465C76.1073 27.6181 76.2431 27.9577 76.2431 28.3576C76.2431 28.7576 76.1073 29.0972 75.8432 29.3764C75.5791 29.648 75.2395 29.7838 74.8396 29.7838C74.2887 29.7838 73.768 29.4443 73.5567 28.9613V27.7615Z" fill="#707683"/>
<path d="M82.5396 29.7838C81.9736 29.7838 81.5435 29.5273 81.5435 29.0368C81.5435 28.584 81.9585 28.3048 82.6226 28.3048C83.0376 28.3048 83.4375 28.4256 83.8073 28.667V29.1726C83.5432 29.5046 83.0602 29.7838 82.5396 29.7838ZM82.3886 30.2743C82.9999 30.2743 83.4904 30.063 83.8601 29.6329C83.9205 30.0253 84.1921 30.214 84.5468 30.214C84.7128 30.214 84.8335 30.1838 84.909 30.1309V29.7084C84.8486 29.7386 84.7807 29.7537 84.6977 29.7537C84.4864 29.7537 84.3506 29.5801 84.3506 29.3009V27.7992C84.3506 26.9164 83.6941 26.4485 82.7207 26.4485C82.2 26.4485 81.7699 26.5617 81.4152 26.7805V27.3088C81.785 27.0597 82.1774 26.939 82.6075 26.939C83.4074 26.939 83.8073 27.2408 83.8073 27.8521V28.2143C83.4074 27.9803 82.9697 27.8596 82.4943 27.8596C82.0642 27.8596 81.7095 27.9653 81.4228 28.1841C81.1436 28.4029 81.0002 28.6972 81.0002 29.067C81.0002 29.4443 81.136 29.7386 81.4001 29.9574C81.6718 30.1687 82.0038 30.2743 82.3886 30.2743Z" fill="#707683"/>
<path d="M88.5895 30.1838C89.3668 30.1838 89.8044 29.8065 89.8044 29.2028C89.8044 28.7123 89.5705 28.4029 89.1102 28.2671C89.4121 28.1237 89.563 27.8596 89.563 27.4672C89.563 26.9164 89.163 26.5391 88.4613 26.5391H86.5446V30.1838H88.5895ZM87.0879 28.5388H88.4764C88.9668 28.5388 89.2536 28.7576 89.2536 29.1273C89.2536 29.4971 88.9668 29.7084 88.4764 29.7084H87.0879V28.5388ZM87.0879 27.0145H88.3103C88.7631 27.0145 89.0272 27.1956 89.0272 27.5502C89.0272 27.8898 88.7631 28.086 88.3103 28.086H87.0879V27.0145Z" fill="#707683"/>
<path d="M92.9035 30.1838V27.0145H94.224V26.5391H91.0396V27.0145H92.3602V30.1838H92.9035Z" fill="#707683"/>
<path d="M96.0044 27.0145C95.6346 27.3842 95.4535 27.837 95.4535 28.3652C95.4535 28.8934 95.6346 29.3462 96.0044 29.7159C96.3741 30.0857 96.842 30.2743 97.423 30.2743C98.0041 30.2743 98.4719 30.0857 98.8417 29.7159C99.2114 29.3462 99.3925 28.8934 99.3925 28.3652C99.3925 27.837 99.2114 27.3842 98.8417 27.0145C98.4719 26.6372 98.0041 26.4485 97.423 26.4485C96.842 26.4485 96.3741 26.6372 96.0044 27.0145ZM98.8341 28.3652C98.8341 28.7651 98.6983 29.1047 98.4342 29.3764C98.1701 29.648 97.8305 29.7838 97.423 29.7838C97.0156 29.7838 96.676 29.648 96.4119 29.3764C96.1478 29.1047 96.0119 28.7651 96.0119 28.3652C96.0119 27.9577 96.1478 27.6181 96.4119 27.3465C96.676 27.0748 97.0156 26.939 97.423 26.939C97.8305 26.939 98.1701 27.0748 98.4342 27.3465C98.6983 27.6181 98.8341 27.9577 98.8341 28.3652Z" fill="#707683"/>
<path d="M102.115 30.2743C103.149 30.2743 103.813 29.8216 103.813 29.15C103.813 28.6897 103.564 28.3878 103.073 28.2294C103.367 28.1011 103.631 27.9275 103.662 27.4069C103.662 27.1201 103.518 26.8862 103.239 26.7126C102.96 26.5391 102.613 26.4485 102.19 26.4485C101.677 26.4485 101.239 26.524 100.885 26.6824V27.188C101.277 27.022 101.677 26.939 102.085 26.939C102.771 26.939 103.111 27.1277 103.111 27.505C103.111 27.8143 102.839 28.0332 102.258 28.0332H101.624V28.5086H102.258C102.862 28.5086 103.247 28.7199 103.247 29.1122C103.247 29.5424 102.779 29.7838 102.047 29.7838C101.602 29.7838 101.171 29.6857 100.772 29.4971V30.0253C101.141 30.1913 101.587 30.2743 102.115 30.2743Z" fill="#707683"/>
<path d="M106.894 29.7838C106.329 29.7838 105.898 29.5273 105.898 29.0368C105.898 28.584 106.313 28.3048 106.977 28.3048C107.392 28.3048 107.792 28.4256 108.162 28.667V29.1726C107.898 29.5046 107.415 29.7838 106.894 29.7838ZM106.744 30.2743C107.355 30.2743 107.845 30.063 108.215 29.6329C108.275 30.0253 108.547 30.214 108.902 30.214C109.068 30.214 109.188 30.1838 109.264 30.1309V29.7084C109.204 29.7386 109.136 29.7537 109.053 29.7537C108.841 29.7537 108.705 29.5801 108.705 29.3009V27.7992C108.705 26.9164 108.049 26.4485 107.076 26.4485C106.555 26.4485 106.125 26.5617 105.77 26.7805V27.3088C106.14 27.0597 106.532 26.939 106.962 26.939C107.762 26.939 108.162 27.2408 108.162 27.8521V28.2143C107.762 27.9803 107.325 27.8596 106.849 27.8596C106.419 27.8596 106.064 27.9653 105.778 28.1841C105.498 28.4029 105.355 28.6972 105.355 29.067C105.355 29.4443 105.491 29.7386 105.755 29.9574C106.027 30.1687 106.359 30.2743 106.744 30.2743Z" fill="#707683"/>
<path d="M111.443 30.1838V27.0145H113.631V30.1838H114.174V26.5391H110.899V30.1838H111.443Z" fill="#707683"/>
<path d="M119.174 30.1838V26.5391H118.63V28.2218C118.321 28.3803 117.981 28.4633 117.612 28.4633C116.857 28.4633 116.57 28.1916 116.57 27.4069V26.5391H116.027V27.4521C116.027 28.5388 116.502 28.9538 117.506 28.9538C117.906 28.9538 118.276 28.8783 118.63 28.7274V30.1838H119.174Z" fill="#707683"/>
<path d="M122.445 29.7838C121.879 29.7838 121.449 29.5273 121.449 29.0368C121.449 28.584 121.864 28.3048 122.528 28.3048C122.943 28.3048 123.343 28.4256 123.712 28.667V29.1726C123.448 29.5046 122.965 29.7838 122.445 29.7838ZM122.294 30.2743C122.905 30.2743 123.396 30.063 123.765 29.6329C123.826 30.0253 124.097 30.214 124.452 30.214C124.618 30.214 124.739 30.1838 124.814 30.1309V29.7084C124.754 29.7386 124.686 29.7537 124.603 29.7537C124.392 29.7537 124.256 29.5801 124.256 29.3009V27.7992C124.256 26.9164 123.599 26.4485 122.626 26.4485C122.105 26.4485 121.675 26.5617 121.32 26.7805V27.3088C121.69 27.0597 122.083 26.939 122.513 26.939C123.313 26.939 123.712 27.2408 123.712 27.8521V28.2143C123.313 27.9803 122.875 27.8596 122.399 27.8596C121.969 27.8596 121.615 27.9653 121.328 28.1841C121.049 28.4029 120.905 28.6972 120.905 29.067C120.905 29.4443 121.041 29.7386 121.305 29.9574C121.577 30.1687 121.909 30.2743 122.294 30.2743Z" fill="#707683"/>
<path d="M128.125 30.2743C128.57 30.2743 128.963 30.1687 129.302 29.9649V29.4669C128.978 29.6782 128.615 29.7838 128.208 29.7838C127.793 29.7838 127.438 29.648 127.159 29.3839C126.88 29.1122 126.744 28.7727 126.744 28.3652C126.744 27.9502 126.88 27.6106 127.159 27.3465C127.438 27.0748 127.793 26.939 128.208 26.939C128.563 26.939 128.902 27.0296 129.234 27.2182V26.7126C128.925 26.5391 128.555 26.4485 128.133 26.4485C127.582 26.4485 127.114 26.6296 126.744 26.9994C126.374 27.3616 126.186 27.8143 126.186 28.3576C126.186 28.9085 126.367 29.3613 126.737 29.731C127.106 30.0932 127.574 30.2743 128.125 30.2743Z" fill="#707683"/>
<path d="M132.529 30.1838V27.0145H133.849V26.5391H130.665V27.0145H131.985V30.1838H132.529Z" fill="#707683"/>
<path d="M137.086 30.2743C137.637 30.2743 138.059 30.1611 138.361 29.9272V29.4443C138.007 29.6706 137.614 29.7838 137.192 29.7838C136.316 29.7838 135.697 29.2783 135.637 28.4935H138.633V28.3426C138.633 27.52 138.15 26.4485 136.927 26.4485C136.384 26.4485 135.939 26.6296 135.592 26.9994C135.252 27.3616 135.079 27.8143 135.079 28.3652C135.079 28.9236 135.267 29.3839 135.652 29.7386C136.037 30.0932 136.52 30.2743 137.086 30.2743ZM135.645 28.0483C135.667 27.7464 135.796 27.4899 136.014 27.271C136.241 27.0522 136.535 26.939 136.905 26.939C137.29 26.939 137.576 27.0522 137.765 27.2861C137.961 27.5125 138.067 27.7691 138.082 28.0483H135.645Z" fill="#707683"/>
<path d="M140.914 30.1838L143.246 27.3465V30.1838H143.789V26.5391H143.283L140.952 29.3839V26.5391H140.408V30.1838H140.914ZM142.106 25.9203C142.8 25.9203 143.314 25.4675 143.321 24.7733H142.846C142.838 25.1883 142.544 25.4826 142.099 25.4826C141.646 25.4826 141.352 25.1883 141.352 24.7733H140.869C140.876 25.4675 141.374 25.9203 142.106 25.9203Z" fill="#707683"/>
<path fill-rule="evenodd" clip-rule="evenodd" d="M0 17.5984C0 7.88649 7.89046 0 17.6072 0C27.3418 0 35.2145 7.88649 35.2145 17.6161C35.2145 27.328 27.324 35.2145 17.6072 35.2145C13.2453 35.2145 9.25577 33.6195 6.18825 30.9966L12.3056 24.8823C13.795 25.9634 15.6213 26.6191 17.6072 26.6191C22.572 26.6191 26.6148 22.5784 26.6148 17.6161C26.6148 12.6538 22.572 8.61311 17.6072 8.61311C12.6425 8.61311 8.59971 12.6538 8.59971 17.6161C8.59971 19.5833 9.25577 21.4087 10.3374 22.8974L4.22007 29.0116C1.59582 25.9279 0 21.9581 0 17.5984ZM23.8132 17.5984C23.8132 21.0189 21.0294 23.8013 17.6072 23.8013C14.1851 23.8013 11.3835 21.0189 11.4013 17.5984C11.4013 14.178 14.1851 11.3956 17.6072 11.3956C21.0294 11.3956 23.8132 14.178 23.8132 17.5984Z" fill="#00C2FF"/>
</svg>
