<svg viewBox="0 0 38 38" fill="none" xmlns="http://www.w3.org/2000/svg"><path d="M35 0a3 3 0 0 1 3 3v32a3 3 0 0 1-3 3H3a3 3 0 0 1-3-3V3a3 3 0 0 1 3-3h32Z" fill="#8DD35F"/><path fill-rule="evenodd" clip-rule="evenodd" d="M29 0h6a3 3 0 0 1 3 3v32a3 3 0 0 1-3 3H14L29 0Z" fill="#FBE1AC"/><path fill-rule="evenodd" clip-rule="evenodd" d="M26 22h12v13a3 3 0 0 1-3 3H20l6-16Z" fill="#66A3FF"/><path fill-rule="evenodd" clip-rule="evenodd" d="M34 0h1a3 3 0 0 1 3 3v15H27l7-18Z" fill="#DEAA87" fill-opacity=".605"/><path fill-rule="evenodd" clip-rule="evenodd" d="M12.886 26.32C16.962 18.515 19 13.41 19 11a7 7 0 1 0-14 0c0 2.409 2.038 7.515 6.114 15.32a1 1 0 0 0 1.772 0Z" fill="#FBE1AC"/><path d="M12 15a4 4 0 1 0 0-8 4 4 0 0 0 0 8Z" fill="#D35F5F"/></svg>