<svg width="24" height="24" viewBox="0 0 24 24" fill="none" xmlns="http://www.w3.org/2000/svg">
<circle cx="12" cy="12" r="12" fill="#C4C4C4"/>
<path d="M12.3705 19.9157C8.09848 19.9157 4.5552 16.3724 4.5552 12.1004C4.5552 11.8782 4.5654 11.6581 4.58421 11.4403L11.1235 11.8483L8.2951 13.8024C8.25681 13.8294 8.23158 13.8737 8.23158 13.9239C8.23158 14.0057 8.298 14.0721 8.37978 14.0721H19.9281C19.0401 17.4098 15.9631 19.9157 12.3705 19.9157ZM12.3705 4.28472C16.6426 4.28472 20.1859 7.8283 20.1859 12.1004C20.1859 12.3208 20.1762 12.5394 20.1575 12.7558L13.6245 12.3405L16.4593 10.398C16.4979 10.3711 16.5228 10.3267 16.5228 10.2765C16.5228 10.1947 16.4567 10.1283 16.3752 10.1283H4.81299C5.70129 6.79066 8.77794 4.28472 12.3705 4.28472ZM23.5792 12.9733L21.441 12.8373C21.4605 12.5942 21.4709 12.3483 21.4709 12.1004C21.4709 7.07428 17.3966 3 12.3705 3C8.02191 3 4.38611 6.05056 3.48535 10.1283H1.80622C1.69631 10.1283 1.59799 10.1805 1.53565 10.2617L1.03596 10.9517C1.01346 10.9807 1 11.0169 1 11.0563C1 11.1509 1.0763 11.2272 1.17084 11.2272L3.30063 11.36C3.2809 11.6042 3.27047 11.851 3.27047 12.1004C3.27047 17.1262 7.34474 21.2004 12.3705 21.2004C16.7192 21.2004 20.355 18.1499 21.256 14.0721H22.9435C23.0537 14.0721 23.1518 14.0199 23.2141 13.9387L23.7141 13.2488C23.7366 13.2198 23.7501 13.1835 23.7501 13.1441C23.7501 13.0495 23.6735 12.9733 23.5792 12.9733Z" fill="white"/>
</svg>
