<svg width="24" height="24" viewBox="0 0 24 24" fill="none" xmlns="http://www.w3.org/2000/svg">
<circle cx="12" cy="12" r="12" fill="#C4C4C4"/>
<path d="M12 20.8214C7.17857 20.8214 3.21429 16.8214 3.21429 12C3.21429 11 3.39286 10.0357 3.71429 9.10714L8.85714 19.1071C8.92857 19.25 9 19.3571 9.17857 19.3571C9.35714 19.3571 9.42857 19.25 9.5 19.1071L11.8929 13.7857C11.9286 13.7143 11.9643 13.6786 12 13.6786C12.0714 13.6786 12.0714 13.75 12.1071 13.7857L14.5357 19.1071C14.6071 19.25 14.6786 19.3571 14.8571 19.3571C15.0357 19.3571 15.1071 19.25 15.1786 19.1071L20.3214 9.10714C20.6429 10 20.8214 10.9643 20.8214 12C20.7857 16.8214 16.8214 20.8214 12 20.8214ZM12 9.71429C11.9286 9.71429 11.9286 9.64286 11.8929 9.60714L9.14286 3.67857C10.0357 3.35714 11 3.17857 12 3.17857C13 3.17857 13.9643 3.35714 14.8571 3.67857L12.1071 9.60714C12.0714 9.64286 12.0714 9.71429 12 9.71429ZM9.10714 16.1429C9.03571 16.1429 9.03571 16.0714 9 16.0357L4.5 7.39286C5.28571 6.10714 6.42857 5.03571 7.75 4.28571L10.9286 11.1429C11 11.2857 11.0714 11.3214 11.1786 11.3214H12.8214C12.9286 11.3214 13 11.2857 13.0714 11.1429L16.2143 4.28571C17.5357 5.03571 18.6786 6.10714 19.4643 7.39286L15 16.0357C14.9643 16.1071 14.9286 16.1429 14.8929 16.1429C14.8214 16.1429 14.8214 16.0714 14.7857 16.0357L13.0714 12.25C13 12.1071 12.9286 12.0714 12.8214 12.0714H11.1786C11.0714 12.0714 11 12.1071 10.9286 12.25L9.21429 16.0357C9.17857 16.0714 9.17857 16.1429 9.10714 16.1429ZM12 22C17.5357 22 22 17.5357 22 12C22 6.46429 17.5357 2 12 2C6.46429 2 2 6.46429 2 12C2 17.5357 6.46429 22 12 22Z" fill="white"/>
</svg>
