<svg width="24" height="24" viewBox="0 0 24 24" fill="none" xmlns="http://www.w3.org/2000/svg">
<circle cx="12" cy="12" r="12" fill="#C4C4C4"/>
<path d="M11.4483 16.9927C10.7851 16.9753 10.0537 16.9171 9.40627 16.8303C6.64986 16.4606 4.34008 15.5183 3.05423 14.239C2.50895 13.6965 2.16342 13.1004 2.04689 12.5013C2.00894 12.3061 2 12.2105 2 12C2 11.7895 2.00894 11.6939 2.04689 11.4988C2.12349 11.105 2.30541 10.6989 2.57384 10.3226C3.1809 9.47148 4.24612 8.71376 5.64377 8.13883C7.97325 7.18061 11.0234 6.80104 13.9936 7.09976C17.4803 7.45044 20.3487 8.71889 21.4868 10.4135C22.0072 11.1882 22.1346 12.0296 21.8562 12.852C21.6955 13.3269 21.3831 13.8015 20.9434 14.239C19.7251 15.4511 17.5809 16.3652 15.0074 16.7696C13.8564 16.9505 12.6698 17.0248 11.4483 16.9927ZM12.969 16.3532C14.3646 16.267 15.5431 16.0625 16.6915 15.7072C17.6027 15.4252 18.4521 15.0349 19.1042 14.5985C19.4328 14.3785 19.6608 14.1929 19.9186 13.9353C20.2248 13.6294 20.4223 13.361 20.5832 13.0324C20.7631 12.6649 20.8328 12.3767 20.8328 12C20.8328 11.6212 20.7586 11.3177 20.5763 10.9514C20.4187 10.6346 20.2176 10.3636 19.9186 10.0648C19.4794 9.62599 18.9577 9.2641 18.2681 8.91999C16.9773 8.27581 15.3622 7.85435 13.563 7.69218C12.5665 7.60235 11.4343 7.60231 10.4346 7.69206C7.90507 7.91913 5.7337 8.66768 4.39021 9.77576C4.21979 9.91632 3.91601 10.2221 3.78868 10.3812C3.33339 10.9502 3.11846 11.5641 3.16743 12.1557C3.22079 12.8002 3.51193 13.3685 4.07907 13.9353C4.50868 14.3646 5.01947 14.7214 5.68374 15.0563C7.19641 15.8188 9.05512 16.2558 11.2412 16.3629C11.4881 16.375 12.7283 16.368 12.969 16.3532V16.3532ZM5.87814 14.5273C5.86614 14.5224 5.84652 14.5074 5.83453 14.4942C5.81289 14.4702 5.81271 14.4527 5.80993 12.1434L5.80713 9.81681L5.77827 9.78677C5.75097 9.75837 5.74342 9.75657 5.63936 9.75366L5.52932 9.75058V9.60387V9.45717L6.32141 9.45438L7.11351 9.45159L7.14713 9.4798L7.18076 9.508V10.3468C7.18076 11.2684 7.17827 11.2339 7.24474 11.2339C7.28599 11.2339 7.30028 11.2168 7.53007 10.8916C8.1388 10.0302 8.47365 9.56172 8.50386 9.52919C8.57828 9.44902 8.54455 9.45223 9.31504 9.45197L10.005 9.45173L10.0313 9.47796C10.0636 9.51019 10.0758 9.55421 10.0611 9.58565C10.0518 9.6056 9.75327 10.0475 8.7108 11.5845C8.59699 11.7523 8.56521 11.807 8.56548 11.8345C8.56578 11.863 8.63981 11.9737 8.95587 12.4184C10.3527 14.3837 10.3571 14.3901 10.3615 14.4298C10.3647 14.4596 10.3593 14.4762 10.3384 14.5004L10.3111 14.532L9.59056 14.535C8.8801 14.5379 8.86926 14.5376 8.81695 14.5152C8.78778 14.5027 8.75174 14.4793 8.73687 14.4633C8.722 14.4473 8.39355 13.9917 8.00697 13.4508C7.62039 12.9099 7.29627 12.4609 7.28669 12.453C7.2598 12.4308 7.21065 12.4414 7.1948 12.4728C7.18408 12.494 7.18104 12.7154 7.18092 13.4855L7.18074 14.4711L7.15444 14.5016L7.12813 14.532L6.51403 14.5342C6.17627 14.5354 5.89011 14.5323 5.87812 14.5273L5.87814 14.5273ZM11.35 14.5225C11.3318 14.5145 11.311 14.4948 11.3036 14.4788C11.2932 14.456 11.2903 13.939 11.2903 12.1345V9.81954L11.2584 9.78778C11.2276 9.75709 11.223 9.75601 11.1222 9.75601H11.0178V9.60388V9.45174H11.8242H12.6307L12.6663 9.48345L12.7019 9.51516V11.9935V14.4718L12.6717 14.5019L12.6415 14.5321L12.0122 14.5345C11.5082 14.5364 11.3764 14.534 11.35 14.5225ZM13.6938 14.5244C13.66 14.505 13.6455 14.4808 13.6451 14.4429C13.645 14.4238 13.7997 13.947 13.989 13.3834C14.1783 12.8198 14.4794 11.9234 14.6581 11.3915C14.8368 10.8596 15.0253 10.3 15.0769 10.1481C15.1286 9.99623 15.1709 9.85863 15.1709 9.84235C15.1709 9.82607 15.1615 9.80122 15.1501 9.78711C15.1314 9.76411 15.1181 9.76088 15.022 9.75601L14.9147 9.75058L14.9117 9.60116L14.9087 9.45174L15.8764 9.45186C16.5116 9.45186 16.8581 9.4558 16.8849 9.4632C16.9073 9.46941 16.931 9.48457 16.9376 9.49688C16.9513 9.52227 17.0598 9.8421 17.5713 11.3644C18.4034 13.8409 18.5937 14.4125 18.5937 14.4358C18.5937 14.4741 18.5721 14.5122 18.5429 14.5255C18.5244 14.5339 18.331 14.5375 17.9091 14.5375C17.3526 14.5375 17.2988 14.5359 17.2646 14.5185C17.244 14.5081 17.2182 14.4872 17.2071 14.4722C17.1961 14.4572 17.1116 14.2102 17.0192 13.9234C16.1393 11.1895 16.1636 11.2641 16.1439 11.2421C16.122 11.2179 16.1054 11.2181 16.0828 11.243C16.0648 11.2628 16.0309 11.3667 15.5525 12.8695C15.4136 13.3058 15.2639 13.7752 15.2198 13.9127C15.1757 14.0502 15.1191 14.2274 15.0941 14.3066C15.045 14.4623 15.0232 14.4994 14.9677 14.5226C14.9198 14.5425 13.7285 14.5442 13.6939 14.5244L13.6938 14.5244Z" fill="white"/>
</svg>
