<svg width="20" height="20" viewBox="0 0 20 20" fill="none" xmlns="http://www.w3.org/2000/svg">
<path d="M6.81118 6.11118C6.81118 4.34917 8.23806 2.92229 10.0001 2.92229C11.7621 2.92229 13.189 4.34917 13.189 6.11118C13.189 7.87319 11.7621 9.30007 10.0001 9.30007C8.23806 9.30007 6.81118 7.87319 6.81118 6.11118ZM2.92229 14.8612C2.92229 14.4718 3.11181 14.0788 3.54729 13.6769C3.98752 13.2706 4.63079 12.9041 5.39805 12.5967C6.9337 11.9816 8.78966 11.6723 10.0001 11.6723C11.2105 11.6723 13.0664 11.9816 14.6021 12.5967C15.3693 12.9041 16.0126 13.2706 16.4528 13.6769C16.8883 14.0788 17.0778 14.4718 17.0778 14.8612V17.0778H2.92229V14.8612Z" stroke="#C2CFE0" stroke-width="1.4"/>
</svg>
