<svg viewBox="0 0 256 60" fill="none" xmlns="http://www.w3.org/2000/svg"><path d="M0 0h73v60H0V0Z" fill="#00C2FF"/><path d="M73 0h183v60H73V0Z" fill="#0098D9"/><path d="M99.717 19.822c-.684 0-1.213.258-1.588.774-.375.511-.563 1.226-.563 2.144 0 1.91.717 2.866 2.15 2.866.602 0 1.331-.15 2.186-.452v1.524c-.703.293-1.488.44-2.355.44-1.246 0-2.2-.378-2.86-1.132-.66-.758-.99-1.843-.99-3.258 0-.89.162-1.67.487-2.337.324-.672.789-1.186 1.394-1.541.61-.36 1.322-.54 2.139-.54.832 0 1.668.202 2.508.604l-.586 1.477a9.807 9.807 0 0 0-.967-.399 2.885 2.885 0 0 0-.955-.17ZM110.055 27h-1.787v-5.209h-1.647c-.125 1.465-.277 2.559-.457 3.281-.179.719-.419 1.24-.72 1.565-.297.32-.688.48-1.172.48-.414 0-.754-.062-1.02-.187V25.5c.192.078.383.117.575.117.222 0 .408-.16.556-.48.153-.32.287-.854.405-1.6.121-.75.224-1.78.31-3.088h4.957V27Zm1.543-6.55h1.957l1.237 3.685c.105.32.178.699.217 1.136h.035c.043-.402.127-.78.252-1.136l1.213-3.686h1.916l-2.772 7.389c-.254.683-.617 1.195-1.09 1.535-.468.34-1.017.51-1.646.51-.309 0-.612-.033-.908-.1v-1.418c.214.051.449.076.703.076.316 0 .592-.097.826-.293.238-.191.424-.482.557-.873l.105-.322-2.602-6.504Zm11.839 3.18v-3.18h1.664v3.18l2.332-3.18h1.846l-2.415 3.14 2.643 3.41h-1.91l-2.496-3.322V27h-1.664v-3.322L120.941 27h-1.911l2.643-3.41-2.414-3.14h1.846l2.332 3.18Zm7.209-.556c0-1.504.285-2.644.856-3.422.574-.78 1.468-1.275 2.683-1.482.426-.074.854-.135 1.283-.182.434-.05.887-.107 1.36-.17l.205 1.565c-.992.113-1.75.205-2.274.275-.519.07-.902.149-1.148.235a1.564 1.564 0 0 0-.609.357 1.55 1.55 0 0 0-.364.621c-.086.254-.142.594-.17 1.02h.088c.207-.32.481-.567.821-.739a2.391 2.391 0 0 1 1.095-.258c.809 0 1.438.249 1.887.745.449.492.674 1.199.674 2.12 0 1.063-.285 1.89-.856 2.48-.566.585-1.349.878-2.349.878-1 0-1.782-.357-2.344-1.072-.559-.719-.838-1.71-.838-2.97Zm3.287 2.596c.848 0 1.272-.584 1.272-1.752 0-1.137-.383-1.705-1.149-1.705-.211 0-.422.049-.633.146a2.319 2.319 0 0 0-.574.387 1.705 1.705 0 0 0-.381.475c0 .793.127 1.4.381 1.822.254.418.615.627 1.084.627ZM143.27 27l-.346-.89h-.047c-.301.378-.611.642-.932.79-.316.145-.73.217-1.242.217-.629 0-1.125-.18-1.488-.539-.36-.36-.539-.871-.539-1.535 0-.695.242-1.207.726-1.535.489-.332 1.223-.516 2.203-.551l1.137-.035v-.287c0-.664-.34-.996-1.019-.996-.524 0-1.139.158-1.846.474l-.592-1.207c.754-.394 1.59-.591 2.508-.591.879 0 1.553.19 2.021.574.469.383.704.965.704 1.746V27h-1.248Zm-.528-3.035-.691.023c-.52.016-.906.11-1.16.282-.254.171-.381.433-.381.785 0 .504.289.756.867.756.414 0 .744-.12.99-.358.25-.238.375-.555.375-.95v-.538Zm11.782 1.728v-3.902h-1.342a16.865 16.865 0 0 1-.404 2.068 8.405 8.405 0 0 1-.703 1.834h2.449Zm2.748 3.657h-1.605V27h-4.406v2.35h-1.606v-3.657h.551c.375-.582.689-1.316.943-2.203.254-.886.432-1.9.533-3.04h4.629v5.243h.961v3.657Zm3.143-5.637c0 .648.106 1.139.317 1.47.214.333.562.499 1.043.499.476 0 .818-.164 1.025-.492.211-.333.316-.825.316-1.477 0-.649-.105-1.135-.316-1.46-.211-.323-.557-.485-1.037-.485-.477 0-.82.162-1.031.486-.211.32-.317.806-.317 1.459Zm4.53 0c0 1.066-.282 1.9-.844 2.502-.563.601-1.346.902-2.35.902-.629 0-1.183-.137-1.664-.41a2.764 2.764 0 0 1-1.107-1.19c-.258-.515-.387-1.117-.387-1.804 0-1.07.279-1.902.838-2.496.558-.594 1.344-.89 2.355-.89.629 0 1.184.136 1.664.41.481.273.85.665 1.108 1.177.258.512.387 1.111.387 1.799Zm4.736 3.404c-2.039 0-3.058-1.119-3.058-3.357 0-1.114.277-1.963.832-2.55.554-.589 1.349-.884 2.384-.884.758 0 1.438.149 2.04.445l-.528 1.383a8.326 8.326 0 0 0-.785-.275 2.467 2.467 0 0 0-.727-.111c-.929 0-1.394.66-1.394 1.98 0 1.281.465 1.922 1.394 1.922.344 0 .663-.045.956-.135.293-.094.585-.238.878-.433v1.529c-.289.183-.582.31-.878.38-.293.071-.665.106-1.114.106Zm9.536-6.668v1.342h-2.145V27h-1.787v-5.209h-2.15v-1.342h6.082ZM185.202 27l-.346-.89h-.047c-.301.378-.611.642-.932.79-.316.145-.73.217-1.242.217-.629 0-1.125-.18-1.488-.539-.36-.36-.539-.871-.539-1.535 0-.695.242-1.207.726-1.535.489-.332 1.223-.516 2.203-.551l1.137-.035v-.287c0-.664-.34-.996-1.019-.996-.524 0-1.139.158-1.846.474l-.592-1.207c.754-.394 1.59-.591 2.508-.591.879 0 1.553.19 2.021.574.469.383.704.965.704 1.746V27h-1.248Zm-.528-3.035-.691.023c-.52.016-.906.11-1.16.282-.254.171-.381.433-.381.785 0 .504.289.756.867.756.414 0 .744-.12.99-.358.25-.238.375-.555.375-.95v-.538Zm10.268-1.799c0 .352-.111.652-.334.902-.219.246-.543.405-.972.475v.047c.464.055.832.215 1.101.48.274.262.41.586.41.973 0 .637-.25 1.123-.75 1.459-.5.332-1.215.498-2.144.498h-3.358v-6.55h3.358c.898 0 1.57.146 2.015.439.45.289.674.715.674 1.277Zm-1.646 2.783c0-.258-.1-.443-.299-.556-.199-.118-.498-.176-.897-.176h-1.418v1.547h1.454c.378 0 .666-.07.861-.211a.704.704 0 0 0 .299-.604Zm-.164-2.642c0-.399-.317-.598-.95-.598h-1.5v1.295h1.295c.379 0 .666-.055.862-.164.195-.11.293-.287.293-.533Zm8.334-1.858h1.969l-2.596 3.14L203.663 27h-2.027l-2.678-3.322V27h-1.787v-6.55h1.787v3.18l2.508-3.18Zm5.463 0v2.59c0 .273-.045.941-.134 2.004l3.023-4.594h2.15V27h-1.728v-2.613c0-.465.039-1.121.117-1.969L207.345 27h-2.144v-6.55h1.728ZM100.098 39l-.346-.89h-.047c-.3.378-.611.642-.932.79-.316.145-.73.217-1.242.217-.629 0-1.125-.18-1.488-.539-.36-.36-.54-.871-.54-1.535 0-.695.243-1.207.728-1.535.488-.332 1.222-.516 2.203-.551l1.136-.035v-.287c0-.664-.34-.996-1.02-.996-.523 0-1.138.158-1.845.474l-.592-1.207c.754-.394 1.59-.591 2.508-.591.879 0 1.553.19 2.022.574.468.383.703.964.703 1.746V39h-1.248Zm-.528-3.035-.691.023c-.52.016-.906.11-1.16.282-.254.171-.381.433-.381.785 0 .504.289.755.867.755.414 0 .744-.119.99-.357.25-.238.375-.555.375-.95v-.538Zm11.708-1.799c0 .352-.111.652-.334.902-.218.247-.543.405-.972.475v.047c.464.054.832.215 1.101.48.274.262.41.586.41.973 0 .637-.25 1.123-.75 1.459-.5.332-1.214.498-2.144.498h-3.358v-6.55h3.358c.898 0 1.57.146 2.015.439.45.289.674.714.674 1.277Zm-1.646 2.783c0-.258-.1-.443-.299-.556-.199-.118-.498-.176-.897-.176h-1.417v1.547h1.453c.379 0 .666-.07.861-.211a.704.704 0 0 0 .299-.604Zm-.164-2.642c0-.399-.317-.598-.949-.598h-1.5v1.295h1.294c.379 0 .666-.055.862-.164.195-.11.293-.287.293-.533Zm10.899-1.858v1.342h-2.144V39h-1.788v-5.209h-2.15v-1.342h6.082Zm4.63 3.264c0 .648.105 1.139.316 1.47.215.333.563.499 1.043.499.477 0 .819-.164 1.026-.492.211-.333.316-.825.316-1.477 0-.648-.105-1.135-.316-1.46-.211-.323-.557-.485-1.037-.485-.477 0-.821.162-1.032.486-.211.32-.316.806-.316 1.459Zm4.529 0c0 1.066-.281 1.9-.844 2.502-.562.601-1.345.902-2.349.902-.629 0-1.184-.136-1.664-.41a2.766 2.766 0 0 1-1.108-1.19c-.257-.515-.386-1.117-.386-1.804 0-1.07.279-1.903.838-2.496.558-.594 1.343-.89 2.355-.89.629 0 1.184.136 1.664.41.481.273.85.665 1.108 1.177.257.512.386 1.111.386 1.799Zm5.146-.744c.675 0 1.154-.055 1.435-.164.285-.11.428-.283.428-.522 0-.21-.104-.369-.311-.474-.207-.106-.548-.159-1.025-.159a5.44 5.44 0 0 0-1.025.112 5.463 5.463 0 0 0-1.037.304l-.528-1.248c.465-.175.916-.3 1.354-.375a8.36 8.36 0 0 1 1.465-.117c.816 0 1.47.156 1.962.469.493.312.739.736.739 1.271 0 .739-.436 1.22-1.307 1.442v.058c.535.133.916.323 1.143.569.23.242.345.56.345.955 0 .398-.129.752-.386 1.06-.258.309-.631.547-1.119.715-.489.168-1.063.252-1.723.252-1.094 0-1.934-.135-2.52-.404v-1.477c.336.157.703.28 1.102.37.402.09.791.134 1.166.134.582 0 1.017-.064 1.307-.193.289-.133.433-.32.433-.563 0-.265-.152-.46-.457-.586-.305-.129-.773-.193-1.406-.193h-.692V34.97h.657ZM145.911 39l-.346-.89h-.047c-.3.378-.611.642-.931.79-.317.145-.731.217-1.242.217-.629 0-1.125-.18-1.489-.539-.359-.36-.539-.871-.539-1.535 0-.695.242-1.207.727-1.535.488-.332 1.222-.516 2.203-.551l1.137-.035v-.287c0-.664-.34-.996-1.02-.996-.523 0-1.139.158-1.846.474l-.591-1.207c.753-.394 1.589-.591 2.507-.591.879 0 1.553.19 2.022.574.469.383.703.964.703 1.746V39h-1.248Zm-.527-3.035-.692.023c-.519.016-.906.11-1.16.282-.254.171-.381.433-.381.785 0 .504.289.755.867.755.414 0 .745-.119.991-.357.25-.238.375-.555.375-.95v-.538Zm11.614-3.516V39h-1.793v-5.209h-2.373V39h-1.787v-6.55h5.953Zm5.485 0v2.397c0 .57.264.855.791.855.344 0 .662-.039.955-.117.297-.078.596-.18.897-.305v-2.83h1.787V39h-1.787v-2.602a5.256 5.256 0 0 1-1.155.463c-.355.09-.699.135-1.031.135-.715 0-1.267-.181-1.658-.545-.391-.367-.586-.889-.586-1.564v-2.438h1.787ZM174.988 39l-.346-.89h-.047c-.3.378-.611.642-.931.79-.317.145-.731.217-1.242.217-.629 0-1.125-.18-1.489-.539-.359-.36-.539-.871-.539-1.535 0-.695.242-1.207.727-1.535.488-.332 1.222-.516 2.203-.551l1.137-.035v-.287c0-.664-.34-.996-1.02-.996-.523 0-1.139.158-1.846.474l-.591-1.207c.753-.394 1.589-.591 2.507-.591.879 0 1.553.19 2.022.574.469.383.703.964.703 1.746V39h-1.248Zm-.527-3.035-.692.023c-.519.016-.906.11-1.16.282-.254.171-.381.433-.381.785 0 .504.289.755.867.755.414 0 .745-.119.991-.357.25-.238.375-.555.375-.95v-.538Zm8.321 3.152c-2.039 0-3.059-1.119-3.059-3.357 0-1.113.278-1.963.832-2.55.555-.589 1.35-.884 2.385-.884.758 0 1.438.149 2.039.446l-.527 1.382a8.326 8.326 0 0 0-.785-.275 2.477 2.477 0 0 0-.727-.111c-.93 0-1.394.66-1.394 1.98 0 1.281.464 1.922 1.394 1.922.344 0 .662-.045.955-.135a3.53 3.53 0 0 0 .879-.433v1.529c-.289.184-.582.31-.879.38-.293.071-.664.106-1.113.106Zm10.975-6.668v1.342h-2.144V39h-1.787v-5.209h-2.151v-1.342h6.082Zm5.919 1.149c-.379 0-.675.12-.89.363-.215.238-.338.578-.369 1.02h2.507c-.007-.442-.123-.782-.345-1.02-.223-.242-.524-.363-.903-.363Zm.252 5.52c-1.054 0-1.879-.292-2.472-.874-.594-.582-.891-1.406-.891-2.472 0-1.098.273-1.946.82-2.544.551-.601 1.311-.902 2.28-.902.925 0 1.646.264 2.162.791.515.528.773 1.256.773 2.186v.867h-4.224c.019.508.169.904.451 1.19.281.285.676.427 1.183.427.395 0 .768-.04 1.119-.123a5.601 5.601 0 0 0 1.102-.392v1.382a4.093 4.093 0 0 1-1.002.346 6.163 6.163 0 0 1-1.301.117Zm7.894-6.669v2.59c0 .273-.045.941-.135 2.004l3.023-4.594h2.151V39h-1.729v-2.613c0-.465.039-1.121.118-1.969L208.238 39h-2.145v-6.55h1.729Zm4.512-2.818c-.075.73-.35 1.264-.827 1.6-.476.331-1.164.497-2.062.497-.926 0-1.611-.16-2.057-.48-.441-.32-.689-.86-.744-1.617h1.6c.027.402.127.685.298.85.176.16.489.24.938.24.395 0 .687-.088.879-.264.195-.18.314-.455.357-.826h1.618ZM31.896 29.294c-.573 1.926-2.188 3.144-4.281 3.144-2.636 0-4.375-2.014-4.375-4.383 0-2.476 1.78-4.392 4.375-4.392 2.083 0 3.75 1.307 4.28 3.145l2.97-.855c-.97-3.106-3.948-4.953-7.25-4.953C23.302 21 20 24.105 20 28.055c0 4.03 3.458 7.046 7.615 7.046 3.416 0 6.354-1.985 7.25-4.943l-2.97-.864ZM47.385 23.722v8.657h-5.947c1.312-3.066 1.604-5.925 1.614-8.657h4.333ZM50.51 21H40c-.083 3.793-.073 8.186-1.896 11.38h-1.76V38h3.125v-2.899h9.968V38h3.115v-5.62H50.51V21ZM60 21.01 54.073 35.1h3.083l.896-2.132h6.969l.906 2.132H69L63.083 21.01H60Zm1.542 3.665 2.364 5.63h-4.74l2.376-5.63Z" fill="#fff"/><path fill-rule="evenodd" clip-rule="evenodd" d="M84.79 14.65H13.71v29.7h71.08v-29.7ZM12 13v33h74.5V13H12Z" fill="#fff"/></svg>