<svg width="26" height="26" viewBox="0 0 26 26" fill="none" xmlns="http://www.w3.org/2000/svg">
<path d="M22.158 3.77567C19.7132 1.34233 16.4608 0.00138855 12.9994 0C9.54574 0 6.28824 1.33975 3.82735 3.77249C1.36209 6.2094 0.00317688 9.44789 0 12.8796V12.8836V12.8859C0.00039711 14.963 0.546622 17.0583 1.58348 18.971L0.0355414 26L7.15235 24.3827C8.95484 25.2903 10.966 25.7687 12.9944 25.7695H12.9996C16.4527 25.7695 19.7102 24.4296 22.1715 21.9966C24.6389 19.5577 25.9984 16.3234 26 12.8895C26.001 9.47983 24.6367 6.24312 22.158 3.77567ZM12.9994 23.7402H12.9948C11.1735 23.7394 9.36882 23.2826 7.77621 22.4187L7.43966 22.2362L2.7073 23.3116L3.73522 18.6445L3.53706 18.3031C2.55183 16.6057 2.03122 14.7319 2.03122 12.8838C2.03499 6.90169 6.95479 2.02927 12.999 2.02927C15.919 2.03046 18.6626 3.16133 20.7244 5.21321C22.8174 7.29683 23.9696 10.0228 23.9686 12.8889C23.9662 18.8724 19.0454 23.7402 12.9994 23.7402Z" fill="#25D366"/>
<path d="M9.38644 7H8.82064C8.62369 7 8.30392 7.07976 8.03344 7.39818C7.76276 7.71682 7 8.48695 7 10.0532C7 11.6195 8.05808 13.1329 8.20554 13.3456C8.35321 13.558 10.248 16.8748 13.2489 18.1509C15.743 19.2113 16.2506 19.0003 16.7918 18.9472C17.3332 18.8943 18.5387 18.1773 18.7848 17.434C19.0308 16.6908 19.0308 16.0535 18.9571 15.9204C18.8831 15.7878 18.6862 15.7082 18.3911 15.5491C18.0957 15.3898 16.6487 14.6067 16.378 14.5002C16.1073 14.3942 15.9106 14.3411 15.7136 14.66C15.5167 14.9782 14.9369 15.7144 14.7646 15.9268C14.5925 16.1395 14.4202 16.1661 14.1248 16.0068C13.8295 15.8471 12.8883 15.505 11.7605 14.4207C10.8826 13.5767 10.2734 12.5006 10.1011 12.1819C9.92899 11.8635 10.0828 11.6912 10.2308 11.5323C10.3635 11.3898 10.5427 11.1949 10.6904 11.0091C10.8378 10.8232 10.8798 10.6905 10.9784 10.4781C11.0768 10.2657 11.0275 10.0797 10.9537 9.92058C10.8798 9.76127 10.3132 8.18709 10.0506 7.5575H10.0508C9.82963 7.0273 9.5968 7.00938 9.38644 7Z" fill="#25D366"/>
</svg>
